<svg xmlns="http://www.w3.org/2000/svg" viewBox="0 0 1200 480" role="img" aria-labelledby="title">
  <title id="title">Stylized military convoy schematic</title>
  <rect width="1200" height="480" fill="#0a0a0a"/>
  <g stroke="#1f1f1f" stroke-width="0.6">
    <path d="M0 360L1200 360"/>
    <path d="M0 380L1200 380"/>
    <path d="M0 400L1200 400"/>
  </g>
  <g fill="#141414" stroke="#2a2a2a" stroke-width="1">
    <rect x="80" y="240" width="240" height="120"/>
    <rect x="80" y="200" width="160" height="40"/>
    <circle cx="130" cy="370" r="20" fill="#0a0a0a"/>
    <circle cx="200" cy="370" r="20" fill="#0a0a0a"/>
    <circle cx="280" cy="370" r="20" fill="#0a0a0a"/>
    <rect x="430" y="240" width="240" height="120"/>
    <rect x="430" y="200" width="160" height="40"/>
    <circle cx="480" cy="370" r="20" fill="#0a0a0a"/>
    <circle cx="550" cy="370" r="20" fill="#0a0a0a"/>
    <circle cx="630" cy="370" r="20" fill="#0a0a0a"/>
    <rect x="780" y="240" width="240" height="120"/>
    <rect x="780" y="200" width="160" height="40"/>
    <circle cx="830" cy="370" r="20" fill="#0a0a0a"/>
    <circle cx="900" cy="370" r="20" fill="#0a0a0a"/>
    <circle cx="980" cy="370" r="20" fill="#0a0a0a"/>
  </g>
  <g fill="none" stroke="#f5a623" stroke-width="1" opacity="0.6">
    <rect x="100" y="260" width="200" height="80"/>
    <rect x="450" y="260" width="200" height="80"/>
    <rect x="800" y="260" width="200" height="80"/>
  </g>
  <g font-family="Courier, monospace" font-size="12" fill="#8a8680" letter-spacing="2">
    <text x="120" y="295">UNIT 01 / ESA</text>
    <text x="120" y="315">CARGO COVERED</text>
    <text x="470" y="295">UNIT 02 / FIRE DEPT</text>
    <text x="470" y="315">CONTAINMENT</text>
    <text x="820" y="295">UNIT 03 / UNMARKED</text>
    <text x="820" y="315">PERSONNEL</text>
  </g>
  <g fill="#ff3b30">
    <circle cx="120" cy="220" r="4"/>
    <circle cx="200" cy="220" r="4"/>
    <circle cx="470" cy="220" r="4"/>
    <circle cx="550" cy="220" r="4"/>
    <circle cx="820" cy="220" r="4"/>
    <circle cx="900" cy="220" r="4"/>
  </g>
  <text x="80" y="80" font-family="Courier, monospace" font-size="16" fill="#8a8680" letter-spacing="4">REPORTED CONVOY MOVEMENT / 1996-01-22 / 04:40 BRT</text>
  <text x="80" y="106" font-family="Courier, monospace" font-size="11" fill="#2a2a2a" letter-spacing="2">RECONSTRUCTED FROM EYEWITNESS DESCRIPTIONS — NO OFFICIAL RECORD</text>
</svg>
