<svg xmlns="http://www.w3.org/2000/svg" viewBox="0 0 1200 480" role="img" aria-labelledby="title">
  <title id="title">Night sky over Varginha with unidentified craft</title>
  <defs>
    <linearGradient id="sky" x1="0" x2="0" y1="0" y2="1">
      <stop offset="0%" stop-color="#070b14"/>
      <stop offset="60%" stop-color="#0a0a0a"/>
      <stop offset="100%" stop-color="#141414"/>
    </linearGradient>
  </defs>
  <rect width="1200" height="480" fill="url(#sky)"/>
  <g fill="#e8e6e1">
    <circle cx="120" cy="60" r="0.8"/>
    <circle cx="200" cy="120" r="1.2"/>
    <circle cx="340" cy="40" r="0.6"/>
    <circle cx="510" cy="90" r="1"/>
    <circle cx="680" cy="55" r="0.8"/>
    <circle cx="820" cy="140" r="1.4"/>
    <circle cx="940" cy="30" r="0.7"/>
    <circle cx="1080" cy="110" r="0.9"/>
    <circle cx="1140" cy="60" r="0.6"/>
    <circle cx="60" cy="160" r="0.7"/>
    <circle cx="420" cy="180" r="0.5"/>
    <circle cx="760" cy="200" r="0.6"/>
  </g>
  <g transform="translate(600 220)">
    <ellipse cx="0" cy="0" rx="160" ry="22" fill="#141414" stroke="#00ff41" stroke-width="1.2" opacity="0.9"/>
    <ellipse cx="0" cy="-2" rx="120" ry="14" fill="none" stroke="#00ff41" stroke-width="0.8" opacity="0.7"/>
    <circle cx="-90" cy="0" r="3" fill="#00ff41"/>
    <circle cx="0" cy="0" r="3" fill="#00ff41"/>
    <circle cx="90" cy="0" r="3" fill="#00ff41"/>
    <ellipse cx="0" cy="40" rx="180" ry="6" fill="#00ff41" opacity="0.06"/>
  </g>
  <g stroke="#1f1f1f" stroke-width="1">
    <path d="M0 360L1200 360"/>
    <path d="M0 380L1200 380"/>
  </g>
  <g fill="#0f0f0f">
    <polygon points="0,480 0,400 80,380 160,420 240,390 320,420 400,400 480,430 560,400 640,420 720,395 800,420 880,400 960,425 1040,400 1120,420 1200,400 1200,480"/>
  </g>
  <g fill="#141414">
    <rect x="180" y="395" width="14" height="35"/>
    <rect x="220" y="408" width="10" height="22"/>
    <rect x="320" y="402" width="12" height="28"/>
    <rect x="420" y="410" width="9" height="20"/>
    <rect x="540" y="398" width="14" height="32"/>
    <rect x="700" y="408" width="10" height="22"/>
    <rect x="820" y="400" width="13" height="30"/>
    <rect x="950" y="406" width="10" height="24"/>
    <rect x="1040" y="402" width="12" height="28"/>
  </g>
  <g fill="#f5a623">
    <rect x="184" y="412" width="3" height="3"/>
    <rect x="324" y="416" width="3" height="3"/>
    <rect x="544" y="412" width="3" height="3"/>
    <rect x="824" y="414" width="3" height="3"/>
  </g>
  <text x="60" y="450" font-family="Courier, monospace" font-size="12" fill="#4a4845" letter-spacing="2">VARGINHA / MINAS GERAIS / 03:00 BRT</text>
</svg>
